<svg xmlns="http://www.w3.org/2000/svg" shape-rendering="geometricPrecision" text-rendering="geometricPrecision" image-rendering="optimizeQuality" fill-rule="evenodd" clip-rule="evenodd" viewBox="0 0 512 512"><path d="M145.304 0h221.391C446.615 0 512 65.385 512 145.304v221.391C512 446.615 446.615 512 366.695 512H145.304C65.385 512 0 446.615 0 366.695V145.304C0 65.385 65.385 0 145.304 0zm14.02 181.315c-7.986 0-14.46-6.474-14.46-14.46 0-7.986 6.474-14.46 14.46-14.46H309.56c7.987 0 14.46 6.474 14.46 14.46 0 7.986-6.473 14.46-14.46 14.46H159.324zm249.691 105.62c7.986 0 14.46 6.474 14.46 14.46 0 7.987-6.474 14.461-14.46 14.461h-35.91v35.911c0 7.986-6.474 14.46-14.46 14.46-7.986 0-14.46-6.474-14.46-14.46v-35.911h-35.912c-7.986 0-14.46-6.474-14.46-14.461 0-7.986 6.474-14.46 14.46-14.46h35.912v-35.91c0-7.986 6.474-14.46 14.46-14.46 7.986 0 14.46 6.474 14.46 14.46v35.91h35.91zM159.324 249.41c-7.986 0-14.46-6.475-14.46-14.461 0-7.986 6.474-14.46 14.46-14.46H309.56c7.987 0 14.46 6.474 14.46 14.46 0 7.986-6.473 14.461-14.46 14.461H159.324zm0 66.446c-7.986 0-14.46-6.474-14.46-14.461 0-7.986 6.474-14.46 14.46-14.46h95.928c7.986 0 14.46 6.474 14.46 14.46 0 7.987-6.474 14.461-14.46 14.461h-95.928z"/></svg>